<svg xmlns="http://www.w3.org/2000/svg" fill="#cdd6f4" viewBox="0 0 24 24" width="24px" height="24px"><path d="M 19.6875 2 L 8.6875 3.5 C 7.6875 3.601563 7 4.5 7 5.5 L 7 15.78125 C 6.539063 15.699219 6.039063 15.699219 5.5 15.8125 C 3.601563 16.3125 2 17.988281 2 19.6875 C 2 21.386719 3.601563 22.40625 5.5 21.90625 C 7.398438 21.40625 9 19.699219 9 18 L 9 9.40625 L 20 7.9375 L 20 14.71875 C 19.539063 14.636719 19.039063 14.671875 18.5 14.8125 C 16.601563 15.3125 15 16.988281 15 18.6875 C 15 20.386719 16.601563 21.40625 18.5 20.90625 C 20.398438 20.40625 22 18.699219 22 17 L 22 4 C 22 2.800781 20.886719 1.898438 19.6875 2 Z"/></svg>